HIERARCHY
ROOT Hips
{
	OFFSET -0.001795 -0.223333 0.028219
	CHANNELS 6 Xposition Yposition Zposition Zrotation Yrotation Xrotation 
	JOINT LeftUpLeg
	{
		OFFSET 0.069520 -0.091406 -0.006815
		CHANNELS 3 Zrotation Yrotation Xrotation
		JOINT LeftLeg
		{
			OFFSET 0.034277 -0.375199 -0.004496
			CHANNELS 3 Zrotation Yrotation Xrotation
			JOINT LeftFoot
			{
				OFFSET -0.013596 -0.397961 -0.043693
				CHANNELS 3 Zrotation Yrotation Xrotation
				JOINT LeftToe
				{
					OFFSET 0.026358 -0.055791 0.119288
					CHANNELS 3 Zrotation Yrotation Xrotation
					End Site
					{
						OFFSET 0.000000 0.000000 0.000000
					}
				}
			}
		}
	}
	JOINT RightUpLeg
	{
		OFFSET -0.067670 -0.090522 -0.004320
		CHANNELS 3 Zrotation Yrotation Xrotation
		JOINT RightLeg
		{
			OFFSET -0.038290 -0.382569 -0.008850
			CHANNELS 3 Zrotation Yrotation Xrotation
			JOINT RightFoot
			{
				OFFSET 0.015774 -0.398415 -0.042312
				CHANNELS 3 Zrotation Yrotation Xrotation
				JOINT RightToe
				{
					OFFSET -0.025372 -0.048144 0.123348
					CHANNELS 3 Zrotation Yrotation Xrotation
					End Site
					{
						OFFSET 0.000000 0.000000 0.000000
					}
				}
			}
		}
	}
	JOINT Spine
	{
		OFFSET -0.002533 0.108963 -0.026696
		CHANNELS 3 Zrotation Yrotation Xrotation
		JOINT Spine1
		{
			OFFSET 0.005487 0.135180 0.001092
			CHANNELS 3 Zrotation Yrotation Xrotation
			JOINT Spine2
			{
				OFFSET 0.001457 0.052922 0.025425
				CHANNELS 3 Zrotation Yrotation Xrotation
				JOINT Neck
				{
					OFFSET -0.002778 0.213870 -0.042857
					CHANNELS 3 Zrotation Yrotation Xrotation
					JOINT Head
					{
						OFFSET 0.005152 0.064970 0.051349
						CHANNELS 3 Zrotation Yrotation Xrotation
						End Site
						{
							OFFSET 0.000000 0.000000 0.000000
						}
					}
				}
				JOINT LeftShoulder
				{
					OFFSET 0.078845 0.121749 -0.034090
					CHANNELS 3 Zrotation Yrotation Xrotation
					JOINT LeftArm
					{
						OFFSET 0.090977 0.030469 -0.008868
						CHANNELS 3 Zrotation Yrotation Xrotation
						JOINT LeftForeArm
						{
							OFFSET 0.259612 -0.012772 -0.027456
							CHANNELS 3 Zrotation Yrotation Xrotation
							JOINT LeftHand
							{
								OFFSET 0.249234 0.008986 -0.001171
								CHANNELS 3 Zrotation Yrotation Xrotation
								End Site
								{
									OFFSET 0.000000 0.000000 0.000000
								}
							}
						}
					}
				}
				JOINT RightShoulder
				{
					OFFSET -0.081759 0.118833 -0.038615
					CHANNELS 3 Zrotation Yrotation Xrotation
					JOINT RightArm
					{
						OFFSET -0.096012 0.032551 -0.009143
						CHANNELS 3 Zrotation Yrotation Xrotation
						JOINT RightForeArm
						{
							OFFSET -0.253742 -0.013329 -0.021401
							CHANNELS 3 Zrotation Yrotation Xrotation
							JOINT RightHand
							{
								OFFSET -0.255298 0.007772 -0.005559
								CHANNELS 3 Zrotation Yrotation Xrotation
								End Site
								{
									OFFSET 0.000000 0.000000 0.000000
								}
							}
						}
					}
				}
			}
		}
	}
}
MOTION
Frames: 15
Frame Time: 0.050000
0.000000 0.937904 0.000000 -0.414280 -2.441455 7.610072 6.175063 -0.329619 -4.518046 -0.115140 -0.140110 5.068302 15.686607 26.827113 24.736585 0.000000 0.000000 0.000000 -5.237544 0.648585 -7.301183 -1.642433 -0.198512 -6.781946 21.404075 38.612558 12.059316 0.000000 0.000000 0.000000 5.505419 0.267291 -4.980868 -2.254892 1.046419 -3.795759 -3.608422 4.205481 4.523423 5.294668 -2.346452 -11.494533 0.000000 0.000000 0.000000 -16.465751 -2.425122 -1.118462 -56.175516 -6.047664 -3.749403 -5.959101 -15.316437 1.279753 0.000000 0.000000 0.000000 14.256972 -4.397043 -2.856662 63.653135 5.800918 -2.777653 4.663993 19.159415 1.451884 0.000000 0.000000 0.000000 
0.000158 0.937289 -0.000045 -0.550758 -3.432883 8.233386 5.922209 -0.309285 -3.950164 0.243964 -0.135195 3.269823 16.330484 27.448828 25.157749 0.000000 0.000000 0.000000 -5.168261 0.731692 -8.392378 -1.619966 -0.181022 -6.406076 21.946566 39.309160 12.455300 0.000000 0.000000 0.000000 6.524428 0.301042 -5.250225 -2.834710 1.275937 -4.552151 -4.352939 4.819257 4.348494 5.156441 -2.203207 -11.698612 0.000000 0.000000 0.000000 -17.402483 -1.992193 -1.506553 -55.147319 -6.114293 -3.588132 -5.810453 -14.982758 1.226855 0.000000 0.000000 0.000000 13.873745 -5.389039 -3.284492 64.851433 4.837234 -3.277250 5.108764 18.877297 1.497373 0.000000 0.000000 0.000000 
0.000197 0.937246 -0.000177 -0.193650 -3.061279 7.981164 5.636372 -0.323488 -4.203753 0.181475 -0.150208 3.992913 16.073725 27.205045 24.963575 0.000000 0.000000 0.000000 -5.401623 0.721322 -8.444537 -1.891145 -0.132564 -5.715785 21.391103 39.237219 11.590455 0.000000 0.000000 0.000000 5.956329 0.245726 -4.735587 -2.292732 1.047076 -5.438450 -4.708464 4.217622 4.428590 4.651033 -2.014020 -10.894750 0.000000 0.000000 0.000000 -17.310337 -2.327724 -1.244610 -55.264838 -6.050479 -3.651883 -5.358618 -13.888141 1.091848 0.000000 0.000000 0.000000 14.798814 -4.348293 -2.912999 63.559200 4.303665 -3.601290 4.677912 19.262786 1.456121 0.000000 0.000000 0.000000 
0.000089 0.937280 -0.000214 -0.160173 -2.970565 8.250219 5.775213 -0.331228 -4.314719 -0.076801 -0.101639 3.626570 16.011484 27.144637 24.921823 0.000000 0.000000 0.000000 -5.531451 0.768419 -9.304229 -1.733854 -0.084885 -4.664567 21.104424 39.225704 11.140765 0.000000 0.000000 0.000000 6.060414 0.232315 -4.652838 -2.630630 1.189363 -5.175540 -4.463810 3.421200 3.343892 3.942476 -1.748399 -9.665536 0.000000 0.000000 0.000000 -17.434634 -2.015650 -1.279501 -55.552950 -6.575737 -3.328453 -4.341080 -13.272675 0.937304 0.000000 0.000000 0.000000 13.790365 -4.192736 -2.883589 63.885534 3.901915 -3.727423 5.544750 19.693185 1.589370 0.000000 0.000000 0.000000 
-0.000158 0.937877 -0.000316 -0.048585 -2.369212 8.025989 5.583476 -0.339846 -4.374169 0.268092 -0.162557 3.912309 15.594103 26.721111 24.780151 0.000000 0.000000 0.000000 -5.456650 0.751148 -9.155545 -2.006994 -0.046100 -4.275646 20.626780 38.852816 10.605905 0.000000 0.000000 0.000000 5.682853 0.206277 -4.404122 -2.246214 1.038423 -4.944602 -4.568320 2.934068 3.101124 3.410790 -1.370534 -9.860702 0.000000 0.000000 0.000000 -17.619587 -2.195705 -1.191005 -55.257110 -7.202165 -2.995504 -4.995751 -13.033785 0.993951 0.000000 0.000000 0.000000 13.683713 -4.404382 -2.998775 63.564213 3.525485 -3.896888 5.909880 19.828723 1.652155 0.000000 0.000000 0.000000 
-0.000448 0.938293 -0.000370 0.001103 -2.227069 8.206225 5.689707 -0.348637 -4.522112 0.069225 -0.128954 3.750901 15.472757 26.583451 24.833254 0.000000 0.000000 0.000000 -5.402165 0.763355 -9.337910 -2.168046 -0.034829 -4.254680 20.537162 38.696423 10.575725 0.000000 0.000000 0.000000 5.614304 0.206684 -4.457733 -2.215710 1.026564 -5.162140 -4.416111 2.694932 3.139825 3.196297 -1.268973 -9.632208 0.000000 0.000000 0.000000 -17.940455 -2.023307 -1.269443 -54.861699 -7.407188 -2.877517 -5.195139 -13.062909 1.021982 0.000000 0.000000 0.000000 13.216471 -4.345437 -2.949431 63.678611 3.183220 -4.090175 6.156408 20.048057 1.703984 0.000000 0.000000 0.000000 
-0.000668 0.938659 -0.000454 -0.005633 -1.858804 8.200936 5.610507 -0.361681 -4.715151 0.362409 -0.179150 3.956443 15.236778 26.343749 24.763079 0.000000 0.000000 0.000000 -5.211391 0.761360 -9.284324 -2.442824 -0.013854 -4.208090 20.285558 38.429790 10.345916 0.000000 0.000000 0.000000 5.539508 0.191492 -4.315362 -2.147858 1.002785 -5.045722 -4.450507 2.282926 3.107078 3.188127 -1.211060 -10.167741 0.000000 0.000000 0.000000 -17.937680 -2.007226 -1.233187 -54.786823 -7.537708 -2.811794 -5.918406 -13.682680 1.158142 0.000000 0.000000 0.000000 13.147692 -4.317012 -2.959075 63.694417 2.881312 -4.259673 6.224515 20.360877 1.738418 0.000000 0.000000 0.000000 
-0.000778 0.938928 -0.000560 -0.095646 -1.592682 8.365434 5.580504 -0.378542 -4.984093 0.684097 -0.228311 4.012640 15.087659 26.194711 24.732596 0.000000 0.000000 0.000000 -5.019742 0.772262 -9.386156 -2.583129 -0.007311 -4.258443 20.148011 38.184496 10.301371 0.000000 0.000000 0.000000 5.434647 0.189384 -4.348118 -2.041302 0.961114 -4.986739 -4.351028 2.103291 2.989761 3.137459 -1.182734 -10.141263 0.000000 0.000000 0.000000 -17.985232 -2.176384 -1.142297 -54.615256 -7.429164 -2.837520 -6.781760 -14.425392 1.328641 0.000000 0.000000 0.000000 13.187373 -4.276193 -2.954800 63.776428 2.698753 -4.351980 6.184556 20.404703 1.732822 0.000000 0.000000 0.000000 
-0.000880 0.939171 -0.000654 -0.142617 -1.527763 8.279649 5.588051 -0.381004 -5.056922 0.788914 -0.253599 4.270670 15.041905 26.142415 24.770109 0.000000 0.000000 0.000000 -4.907805 0.760541 -9.152684 -2.663481 -0.016773 -4.496879 20.193111 38.107697 10.432258 0.000000 0.000000 0.000000 5.386292 0.166758 -4.086936 -2.108603 0.990166 -5.176276 -4.073662 2.141211 3.167052 3.163456 -1.164449 -10.456481 0.000000 0.000000 0.000000 -17.882729 -2.345838 -1.037449 -54.612485 -7.474181 -2.836930 -7.358659 -14.834583 1.441250 0.000000 0.000000 0.000000 13.454496 -4.070458 -2.882638 63.332160 2.765592 -4.312633 6.219282 20.198353 1.719549 0.000000 0.000000 0.000000 
-0.001020 0.939375 -0.000697 -0.173556 -1.480036 8.156573 5.597559 -0.377124 -4.996517 0.859668 -0.268383 4.377862 14.997423 26.090886 24.796479 0.000000 0.000000 0.000000 -4.911655 0.750046 -9.011809 -2.564454 -0.022379 -4.495825 20.220587 38.060384 10.511591 0.000000 0.000000 0.000000 5.407943 0.144294 -3.817648 -2.126908 0.998911 -5.254913 -3.984656 2.259476 3.362549 3.275679 -1.190606 -10.812794 0.000000 0.000000 0.000000 -17.673522 -2.579208 -0.912975 -54.513717 -7.696889 -2.752402 -8.148693 -15.178684 1.577160 0.000000 0.000000 0.000000 13.652757 -3.725404 -2.714928 63.084159 3.127520 -4.124421 5.985612 20.052882 1.673488 0.000000 0.000000 0.000000 
-0.001163 0.939422 -0.000676 -0.263857 -1.444688 8.136315 5.808458 -0.372224 -4.953066 0.693518 -0.242400 4.337947 14.977712 26.073492 24.759857 0.000000 0.000000 0.000000 -4.791100 0.746386 -8.896715 -2.577624 -0.030735 -4.646651 20.256542 38.017301 10.603837 0.000000 0.000000 0.000000 5.471962 0.135051 -3.714094 -2.139968 1.004744 -5.253417 -3.929419 2.487872 3.474098 3.411257 -1.228545 -11.100839 0.000000 0.000000 0.000000 -17.647479 -2.961490 -0.764048 -54.354539 -7.641285 -2.771865 -8.591575 -15.474806 1.662410 0.000000 0.000000 0.000000 13.839725 -3.613568 -2.639528 63.090300 3.668199 -3.836787 5.734850 19.653347 1.605605 0.000000 0.000000 0.000000 
-0.001261 0.939290 -0.000581 -0.382883 -1.477651 8.241056 6.151789 -0.370923 -5.024370 0.327022 -0.186763 4.298167 15.021187 26.126480 24.706712 0.000000 0.000000 0.000000 -4.680857 0.757108 -8.986494 -2.535304 -0.036216 -4.690210 20.300335 38.026478 10.674202 0.000000 0.000000 0.000000 5.504248 0.132491 -3.708243 -2.122271 0.996550 -5.096314 -3.710895 2.575745 3.326268 3.939826 -1.508904 -11.584949 0.000000 0.000000 0.000000 -17.579749 -3.155856 -0.667633 -54.430296 -7.535690 -2.807137 -8.922909 -15.578055 1.716368 0.000000 0.000000 0.000000 13.677983 -3.411464 -2.522715 63.224010 4.135709 -3.568116 5.389375 19.719698 1.557484 0.000000 0.000000 0.000000 
-0.001292 0.939341 -0.000430 -0.568243 -1.481496 8.269057 6.392682 -0.363418 -4.911469 0.264322 -0.170215 4.084789 15.036275 26.144205 24.684883 0.000000 0.000000 0.000000 -4.415193 0.767892 -9.021716 -2.639052 -0.028414 -4.661411 20.330081 38.034296 10.720019 0.000000 0.000000 0.000000 5.532230 0.122010 -3.597260 -1.928747 0.916303 -5.206958 -3.653552 2.851313 3.227754 4.476808 -1.802925 -11.828766 0.000000 0.000000 0.000000 -17.796921 -3.399365 -0.631358 -54.221869 -7.337879 -2.860952 -9.159149 -15.561400 1.738795 0.000000 0.000000 0.000000 14.117332 -3.337045 -2.488346 63.041830 4.670564 -3.256087 4.987626 19.737763 1.505622 0.000000 0.000000 0.000000 
-0.001239 0.939290 -0.000290 -0.837607 -1.560264 8.173963 6.632114 -0.353078 -4.792391 0.327846 -0.180952 4.136812 15.116596 26.231843 24.667948 0.000000 0.000000 0.000000 -4.179042 0.783448 -9.147595 -2.533492 -0.009905 -4.252403 20.377684 38.141325 10.720752 0.000000 0.000000 0.000000 5.508986 0.108523 -3.420446 -1.699164 0.820770 -5.257803 -3.463556 3.124019 3.160568 5.300967 -2.282365 -12.096085 0.000000 0.000000 0.000000 -17.850266 -3.740726 -0.509426 -54.115310 -7.085873 -2.953339 -9.476693 -15.359843 1.752485 0.000000 0.000000 0.000000 14.372519 -2.988494 -2.307305 63.047415 5.233296 -2.945000 4.385343 19.904185 1.432681 0.000000 0.000000 0.000000 
-0.001194 0.939130 -0.000132 -0.952459 -1.591284 8.199606 6.746273 -0.348641 -4.706458 0.334378 -0.176537 3.984888 15.157373 26.281249 24.621921 0.000000 0.000000 0.000000 -4.114164 0.788573 -9.183169 -2.431194 -0.015038 -4.228666 20.413054 38.166333 10.762933 0.000000 0.000000 0.000000 5.522643 0.113075 -3.473806 -1.711354 0.824669 -5.127619 -3.284258 3.226408 2.972610 5.539341 -2.400531 -12.284194 0.000000 0.000000 0.000000 -17.991024 -4.002215 -0.407890 -54.078802 -6.968625 -2.978645 -9.305726 -15.240461 1.714165 0.000000 0.000000 0.000000 14.426763 -2.786950 -2.207202 63.073668 5.974134 -2.524061 4.045848 20.070708 1.393302 0.000000 0.000000 0.000000 
